<svg>
    <symbol id="icon-search"  viewBox="0 0 17 18"  xmlns="http://www.w3.org/2000/svg">
        <path d="M11.9276 12.7748L15.37 17.0644" stroke="white" stroke-linecap="round"/>
        <circle cx="8.48533" cy="8.48526" r="5.5" transform="rotate(-38.7469 8.48533 8.48526)" stroke="white"/>
    </symbol>
    <symbol id="icon-watch"  viewBox="0 0 12 12"  xmlns="http://www.w3.org/2000/svg">
        <circle cx="6" cy="6" r="5.5" stroke="#696969"/>
        <path d="M4 6H6.5V2.5" stroke="#696969"/>
    </symbol>
    <symbol id="icon-like"  viewBox="0 0 16 14"  xmlns="http://www.w3.org/2000/svg">
        <path d="M8.34372 2.25572H8.36529C9.29718 1.44175 11.7563 0.165765 13.9565 1.76734C17.3111 4.20921 14.2458 9.5 8.36529 13H8.34372M8.34378 2.25572H8.32221C7.39032 1.44175 4.93121 0.165765 2.73102 1.76734C-0.623552 4.20921 2.44172 9.5 8.32221 13H8.34378"/>
    </symbol>
    <symbol id="icon-likeActive"  viewBox="0 0 16 14"  xmlns="http://www.w3.org/2000/svg">
        <path xmlns="http://www.w3.org/2000/svg" d="M8.02203 12.7031C13.9025 9.20312 16.9678 3.91234 13.6132 1.47046C11.413 -0.13111 8.95392 1.14488 8.02203 1.95884H8.00052H8.00046H7.97895C7.04706 1.14488 4.58794 -0.13111 2.38775 1.47046C-0.966814 3.91234 2.09846 9.20312 7.97895 12.7031H8.00046H8.00052H8.02203Z" fill="#B672FF"/>
        <path xmlns="http://www.w3.org/2000/svg" d="M8.02203 12.7031C13.9025 9.20312 16.9678 3.91234 13.6132 1.47046C11.413 -0.13111 8.95392 1.14488 8.02203 1.95884H8.00052H8.00046H7.97895C7.04706 1.14488 4.58794 -0.13111 2.38775 1.47046C-0.966814 3.91234 2.09846 9.20312 7.97895 12.7031H8.00046H8.00052H8.02203Z" fill="#B672FF"/>
    </symbol>
    <symbol id="icon-note"  viewBox="0 0 20 19"  xmlns="http://www.w3.org/2000/svg">
        <path d="M8 16V1.9697L19 1V13" stroke="#4E4E4E"/>
        <ellipse cx="4.5" cy="16" rx="3.5" ry="2" stroke="#4E4E4E"/>
        <ellipse cx="15.5" cy="13" rx="3.5" ry="2" stroke="#4E4E4E"/>
    </symbol>
    <symbol id="icon-volume" fill="none" viewBox="0 0 14 18" xmlns="http://www.w3.org/2000/svg">
        <mask id="path-1-inside-1_2985_507" fill="white">
        <path fill-rule="evenodd" clip-rule="evenodd" d="M8 0L3 5H0V13H3L8 18V0Z"/>
        </mask>
        <path d="M3 5V6H3.41421L3.70711 5.70711L3 5ZM8 0H9V-2.41421L7.29289 -0.707107L8 0ZM0 5V4H-1V5H0ZM0 13H-1V14H0V13ZM3 13L3.70711 12.2929L3.41421 12H3V13ZM8 18L7.29289 18.7071L9 20.4142V18H8ZM3.70711 5.70711L8.70711 0.707107L7.29289 -0.707107L2.29289 4.29289L3.70711 5.70711ZM0 6H3V4H0V6ZM1 13V5H-1V13H1ZM3 12H0V14H3V12ZM8.70711 17.2929L3.70711 12.2929L2.29289 13.7071L7.29289 18.7071L8.70711 17.2929ZM7 0V18H9V0H7Z" fill="white" mask="url(#path-1-inside-1_2985_507)"/>
        <path d="M11 13C12.1046 13 13 11.2091 13 9C13 6.79086 12.1046 5 11 5" stroke="white"/>
    </symbol>
    <symbol id="icon-dislike"  viewBox="0 0 16 15"  xmlns="http://www.w3.org/2000/svg">
        <path d="M8.34372 3.25572H8.36529C9.29718 2.44175 11.7563 1.16576 13.9565 2.76734C17.3111 5.20921 14.2458 10.5 8.36529 14H8.34372M8.34378 3.25572H8.32221C7.39032 2.44175 4.93121 1.16576 2.73102 2.76734C-0.623552 5.20921 2.44172 10.5 8.32221 14H8.34378" />
        <path d="M1 1L15 13.5" />
    </symbol>
    <symbol id="icon-prev" viewBox="0 0 16 14"  xmlns="http://www.w3.org/2000/svg">
        <path d="M1 2V12.5" stroke="white"/>
        <path d="M3 7L12.75 0.937823L12.75 13.0622L3 7Z" fill="#D9D9D9"/>
    </symbol>
    <symbol id="icon-play" viewBox="0 0 15 20"  xmlns="http://www.w3.org/2000/svg">
        <path d="M15 10L-1.01012e-06 0.47372L-1.84293e-06 19.5263L15 10Z" fill="#D9D9D9"/>
    </symbol>
    <symbol id="icon-next" viewBox="0 0 16 14"  xmlns="http://www.w3.org/2000/svg">
        <path d="M15 2V12.5" stroke="white"/>
        <path d="M13 7L3.25 0.937823L3.25 13.0622L13 7Z" fill="#D9D9D9"/>
    </symbol>
    <symbol id="icon-repeat" viewBox="0 0 20 18"  xmlns="http://www.w3.org/2000/svg">
        <path d="M10 3L5 0.113249V5.88675L10 3ZM7 14.5C3.96243 14.5 1.5 12.0376 1.5 9H0.5C0.5 12.5899 3.41015 15.5 7 15.5V14.5ZM1.5 9C1.5 5.96243 3.96243 3.5 7 3.5V2.5C3.41015 2.5 0.5 5.41015 0.5 9H1.5Z" fill="#696969"/>
        <path d="M10 15L15 17.8868V12.1132L10 15ZM13 3.5C16.0376 3.5 18.5 5.96243 18.5 9H19.5C19.5 5.41015 16.5899 2.5 13 2.5V3.5ZM18.5 9C18.5 12.0376 16.0376 14.5 13 14.5V15.5C16.5899 15.5 19.5 12.5899 19.5 9H18.5Z" fill="#696969"/>
    </symbol>
    <symbol id="icon-shuffle" viewBox="0 0 20 18"  xmlns="http://www.w3.org/2000/svg">
        <path d="M19.5 15L14.5 12.1132V17.8868L19.5 15ZM10.1632 12.0833L9.70863 12.2916L10.1632 12.0833ZM7.33683 5.91673L6.8823 6.12505L7.33683 5.91673ZM0.5 3.5H2.79151V2.5H0.5V3.5ZM6.8823 6.12505L9.70863 12.2916L10.6177 11.8749L7.79137 5.7084L6.8823 6.12505ZM14.7085 15.5H15V14.5H14.7085V15.5ZM9.70863 12.2916C10.6047 14.2466 12.5579 15.5 14.7085 15.5V14.5C12.949 14.5 11.3508 13.4745 10.6177 11.8749L9.70863 12.2916ZM2.79151 3.5C4.55105 3.5 6.14918 4.52552 6.8823 6.12505L7.79137 5.7084C6.89533 3.75341 4.94205 2.5 2.79151 2.5V3.5Z" fill="#696969"/>
        <path d="M19.5 3L14.5 5.88675V0.113249L19.5 3ZM10.1632 5.91673L9.70863 5.7084L10.1632 5.91673ZM7.33683 12.0833L6.8823 11.8749L7.33683 12.0833ZM0.5 14.5H2.79151V15.5H0.5V14.5ZM6.8823 11.8749L9.70863 5.7084L10.6177 6.12505L7.79137 12.2916L6.8823 11.8749ZM14.7085 2.5H15V3.5H14.7085V2.5ZM9.70863 5.7084C10.6047 3.75341 12.5579 2.5 14.7085 2.5V3.5C12.949 3.5 11.3508 4.52552 10.6177 6.12505L9.70863 5.7084ZM2.79151 14.5C4.55105 14.5 6.14918 13.4745 6.8823 11.8749L7.79137 12.2916C6.89533 14.2466 4.94205 15.5 2.79151 15.5V14.5Z" fill="#696969"/>
    </symbol>
    <symbol id="icon-pause" fill="currentColor" viewBox="0 0 15 19" xmlns="http://www.w3.org/2000/svg">
       <rect width="5" height="19" fill="#D9D9D9"/>
       <rect x="10" width="5" height="19" fill="#D9D9D9"/>
    </symbol>
    <symbol xmlns="http://www.w3.org/2000/svg" id="icon-burger" viewBox="0 0 20 12">
        <path d="M20 1H0" stroke="white"/>
        <path d="M20 6H0" stroke="white"/>
        <path d="M20 11H0" stroke="white"/>
    </symbol>
    <symbol id="icon-repeatActive" viewBox="0 0 20 18" xmlns="http://www.w3.org/2000/svg">
        <path d="M10 3L5 0.113249V5.88675L10 3ZM7 14.5C3.96243 14.5 1.5 12.0376 1.5 9H0.5C0.5 12.5899 3.41015 15.5 7 15.5V14.5ZM1.5 9C1.5 5.96243 3.96243 3.5 7 3.5V2.5C3.41015 2.5 0.5 5.41015 0.5 9H1.5Z" fill="white"/>
        <path d="M10 15L15 17.8868V12.1132L10 15ZM13 3.5C16.0376 3.5 18.5 5.96243 18.5 9H19.5C19.5 5.41015 16.5899 2.5 13 2.5V3.5ZM18.5 9C18.5 12.0376 16.0376 14.5 13 14.5V15.5C16.5899 15.5 19.5 12.5899 19.5 9H18.5Z" fill="white"/>
    </symbol>
    <symbol id="icon-exit" viewBox="0 0 40 40" fill="none" xmlns="http://www.w3.org/2000/svg">
        <path xmlns="http://www.w3.org/2000/svg" d="M25.6711 16.046V14.7419C25.6711 13.2276 24.4435 12 22.9292 12H16.7419C15.2276 12 14 13.2276 14 14.7419V26.0645C14 27.5788 15.2276 28.8065 16.7419 28.8065H22.9292C24.4435 28.8065 25.6711 27.5788 25.6711 26.0645V24.6048M18.3572 20.3254H33.2963M33.2963 20.3254L30.1062 23.5155M33.2963 20.3254L30.1062 17.1353" stroke="white" stroke-linecap="round" stroke-linejoin="round"/>
        <circle xmlns="http://www.w3.org/2000/svg" cx="20" cy="20" r="19.5" stroke="white"/>
    </symbol>
    <symbol id="icon-shuffleActive" viewBox="0 0 20 18"  xmlns="http://www.w3.org/2000/svg">
        <path xmlns="http://www.w3.org/2000/svg" d="M19.0005 15.7031L14.0005 12.8164V18.5899L19.0005 15.7031ZM9.66366 12.7864L9.20912 12.9947L9.66366 12.7864ZM6.83732 6.61985L6.38279 6.82818L6.83732 6.61985ZM0.000488281 4.20312H2.292V3.20312H0.000488281V4.20312ZM6.38279 6.82818L9.20912 12.9947L10.1182 12.5781L7.29185 6.41152L6.38279 6.82818ZM14.209 16.2031H14.5005V15.2031H14.209V16.2031ZM9.20912 12.9947C10.1052 14.9497 12.0584 16.2031 14.209 16.2031V15.2031C12.4494 15.2031 10.8513 14.1776 10.1182 12.5781L9.20912 12.9947ZM2.292 4.20312C4.05153 4.20312 5.64967 5.22864 6.38279 6.82818L7.29185 6.41152C6.39582 4.45654 4.44254 3.20312 2.292 3.20312V4.20312Z" fill="white"/>
        <path xmlns="http://www.w3.org/2000/svg" d="M19.0005 3.70312L14.0005 6.58988V0.816374L19.0005 3.70312ZM9.66366 6.61985L9.20912 6.41152L9.66366 6.61985ZM6.83732 12.7864L6.38279 12.5781L6.83732 12.7864ZM0.000488281 15.2031H2.292V16.2031H0.000488281V15.2031ZM6.38279 12.5781L9.20912 6.41152L10.1182 6.82818L7.29185 12.9947L6.38279 12.5781ZM14.209 3.20312H14.5005V4.20312H14.209V3.20312ZM9.20912 6.41152C10.1052 4.45654 12.0584 3.20312 14.209 3.20312V4.20312C12.4494 4.20312 10.8513 5.22864 10.1182 6.82818L9.20912 6.41152ZM2.292 15.2031C4.05153 15.2031 5.64967 14.1776 6.38279 12.5781L7.29185 12.9947C6.39582 14.9497 4.44254 16.2031 2.292 16.2031V15.2031Z" fill="white"/>
    </symbol>
</svg>